<?xml version="1.0" encoding="UTF-8" standalone="no"?><!-- Generator: Gravit.io --><svg xmlns="http://www.w3.org/2000/svg" xmlns:xlink="http://www.w3.org/1999/xlink" style="isolation:isolate" viewBox="0 0 841.89 595.28" width="841.89pt" height="595.28pt"><defs><clipPath id="_clipPath_wm5dikQ1Y6kjGh41VjqnAf6HdJAzL9tK"><rect width="841.89" height="595.28"/></clipPath></defs><g clip-path="url(#_clipPath_wm5dikQ1Y6kjGh41VjqnAf6HdJAzL9tK)"><path d=" M 81.446 197.415 C 81.404 225.109 97.041 250.441 121.817 262.816 L 121.817 549.959 C 121.817 568.019 136.457 582.66 154.517 582.66 L 154.517 582.66 C 172.578 582.66 187.218 568.019 187.218 549.959 L 187.218 262.727 C 219.41 246.656 235.094 209.529 224.175 175.246 C 213.257 140.963 178.99 119.745 143.433 125.251 C 107.877 130.757 81.633 161.346 81.595 197.326 L 81.446 197.415 Z " fill="rgb(216,216,214)"/><path d=" M 333.569 201.458 L 333.242 201.458 C 331.226 201.381 329.323 200.503 327.956 199.018 C 326.589 197.534 325.87 195.566 325.959 193.55 C 329.515 106.276 261.76 32.59 174.495 28.827 C 170.447 28.469 167.394 24.994 167.561 20.934 C 167.728 16.874 171.055 13.661 175.119 13.636 C 270.801 17.69 345.129 98.456 341.239 194.145 C 341.079 198.255 337.682 201.493 333.569 201.458 Z " fill="rgb(216,216,214)"/><path d=" M 295.874 199.853 L 295.547 199.853 C 291.354 199.676 288.096 196.138 288.264 191.945 C 290.998 125.472 239.388 69.339 172.919 66.493 C 168.716 66.32 165.448 62.773 165.621 58.57 C 165.793 54.367 169.34 51.1 173.543 51.272 C 248.406 54.488 306.537 117.699 303.484 192.569 C 303.309 196.644 299.953 199.856 295.874 199.853 Z " fill="rgb(216,216,214)"/><path d=" M 258.209 198.277 L 258.001 198.277 C 253.808 198.1 250.55 194.562 250.717 190.369 C 252.579 144.699 217.128 106.136 171.462 104.158 C 167.259 103.986 163.992 100.439 164.164 96.236 C 164.337 92.033 167.884 88.765 172.087 88.937 C 226.169 91.237 268.169 136.908 265.938 190.994 C 265.761 195.115 262.333 198.345 258.209 198.277 Z " fill="rgb(216,216,214)"/><path d=" M 293.823 308.508 L 273.013 398.406 C 271.765 403.043 269.446 408.395 263.56 408.395 C 258.387 408.395 255.176 403.757 253.928 398.406 L 227.351 287.996 C 227.173 287.996 227.173 286.034 227.173 286.034 C 227.173 282.11 231.454 279.791 235.199 279.791 C 238.314 279.72 241.027 281.905 241.621 284.964 L 263.738 380.093 L 284.548 289.483 C 286.153 282.883 287.758 279.137 293.823 279.137 C 299.887 279.137 301.493 283.24 302.92 289.483 L 323.729 380.093 L 345.847 284.964 C 346.451 282.105 348.878 279.994 351.792 279.791 C 355.538 279.791 360.354 281.753 360.354 286.212 C 360.276 286.873 360.157 287.529 359.997 288.174 L 333.421 398.346 C 332.172 403.519 329.318 408.335 323.967 408.335 C 318.616 408.335 315.584 403.4 314.484 398.346 L 293.823 308.508 Z " fill="rgb(216,216,214)"/><path d=" M 434.555 406.611 L 387.288 406.611 C 381.342 406.611 376.051 404.649 376.051 398.228 L 376.051 289.245 C 376.175 284.667 379.856 280.986 384.434 280.861 L 432.772 280.861 C 436.705 280.878 439.89 284.062 439.906 287.996 C 439.884 289.849 439.113 291.614 437.769 292.891 C 436.426 294.167 434.623 294.846 432.772 294.774 L 390.32 294.774 L 390.32 336.393 L 429.383 336.393 C 433.198 336.457 436.275 339.534 436.339 343.35 C 436.363 345.202 435.638 346.985 434.328 348.295 C 433.018 349.605 431.235 350.33 429.383 350.306 L 390.32 350.306 L 390.32 392.698 L 434.555 392.698 C 438.307 392.658 441.438 395.554 441.69 399.298 C 441.722 401.216 440.986 403.068 439.646 404.441 C 438.306 405.814 436.474 406.595 434.555 406.611 L 434.555 406.611 Z " fill="rgb(216,216,214)"/><path d=" M 469.069 406.611 C 464.341 406.611 460.508 402.778 460.508 398.049 L 460.508 289.423 C 460.508 284.695 464.341 280.861 469.069 280.861 L 499.214 280.861 C 522.402 280.861 533.995 296.736 533.995 313.324 C 533.995 328.664 524.185 336.334 510.986 341.863 C 522.877 345.609 537.384 350.96 537.384 370.937 C 537.384 390.914 522.52 406.611 498.5 406.611 L 469.069 406.611 Z  M 495.29 334.372 C 506.883 334.372 519.726 327.594 519.726 313.146 C 519.726 303.692 514.375 294.774 498.322 294.774 L 475.015 294.774 L 475.015 334.372 L 495.29 334.372 Z  M 474.777 348.284 L 474.777 392.698 L 496.538 392.698 C 514.375 392.698 523.115 383.958 523.115 371.116 C 523.115 356.252 511.521 348.284 495.825 348.284 L 474.777 348.284 Z " fill="rgb(216,216,214)"/><path d=" M 228.57 451.203 C 228.57 448.051 231.125 445.495 234.278 445.495 C 237.43 445.495 239.985 448.051 239.985 451.203 L 239.985 477.958 L 260.795 477.958 C 262.223 477.98 263.58 478.582 264.555 479.625 C 265.531 480.667 266.041 482.062 265.968 483.487 C 265.968 484.859 265.423 486.175 264.453 487.145 C 263.483 488.115 262.167 488.66 260.795 488.66 L 239.985 488.66 L 239.985 526.831 C 239.985 546.63 242.126 553.943 256.574 553.943 C 257.822 553.943 258.892 553.764 260.141 553.764 C 263.53 553.764 268.168 554.3 268.168 559.115 C 268.168 563.931 263.53 564.645 259.249 564.645 C 234.634 564.645 228.57 552.516 228.57 528.079 L 228.57 451.203 Z " fill="rgb(216,216,214)"/><path d=" M 332.915 550.375 C 333.527 550.069 334.194 549.887 334.877 549.84 C 337.609 549.903 339.809 552.103 339.872 554.835 C 339.872 562.861 320.965 565.358 311.511 565.358 C 291.534 565.358 280.118 552.694 280.118 536.284 L 280.118 502.038 C 280.118 485.093 291.534 472.31 312.581 472.31 C 332.023 472.31 341.477 483.547 341.477 500.849 C 341.477 516.902 332.737 526.712 311.749 526.712 C 304.982 526.716 298.232 526.059 291.593 524.75 L 291.593 537.414 C 291.593 548.295 298.906 555.608 313.176 555.608 C 320.079 555.464 326.847 553.67 332.915 550.375 L 332.915 550.375 Z  M 312.106 482.417 C 299.263 482.417 291.772 489.552 291.772 500.611 L 291.772 515.772 C 298.674 516.652 305.623 517.129 312.581 517.199 C 327.445 517.199 330.061 509.172 330.061 500.789 C 330.061 487.768 323.402 482.417 312.046 482.417 L 312.106 482.417 Z " fill="rgb(216,216,214)"/><path d=" M 360.919 439.252 C 360.916 436.059 363.436 433.434 366.627 433.307 C 369.817 433.434 372.337 436.059 372.335 439.252 L 372.335 548.057 C 372.074 551.567 373.231 555.036 375.545 557.689 C 375.964 558.458 376.208 559.311 376.259 560.186 C 376.318 561.575 375.792 562.926 374.809 563.909 C 373.826 564.892 372.475 565.418 371.086 565.358 C 367.162 565.358 360.919 563.396 360.919 548.057 L 360.919 439.252 Z " fill="rgb(216,216,214)"/><path d=" M 448.676 550.375 C 449.288 550.069 449.955 549.887 450.638 549.84 C 453.37 549.903 455.57 552.103 455.632 554.835 C 455.632 562.861 436.725 565.358 427.272 565.358 C 407.295 565.358 395.879 552.694 395.879 536.284 L 395.879 502.038 C 395.879 485.093 407.295 472.31 428.342 472.31 C 447.784 472.31 457.238 483.547 457.238 500.849 C 457.238 516.902 448.498 526.712 427.51 526.712 C 420.743 526.716 413.993 526.059 407.354 524.75 L 407.354 537.414 C 407.354 548.295 414.667 555.608 428.937 555.608 C 435.84 555.464 442.608 553.67 448.676 550.375 Z  M 427.866 482.417 C 415.024 482.417 407.533 489.552 407.533 500.611 L 407.533 515.772 C 414.435 516.652 421.384 517.129 428.342 517.199 C 443.206 517.199 445.822 509.172 445.822 500.789 C 445.822 487.768 439.341 482.417 427.807 482.417 L 427.866 482.417 Z " fill="rgb(216,216,214)"/><path d=" M 473.469 505.367 C 473.469 487.174 483.101 472.904 505.219 472.904 C 513.245 472.904 529.298 475.045 529.298 482.715 C 529.306 483.994 528.802 485.224 527.897 486.129 C 526.992 487.034 525.762 487.538 524.482 487.53 C 523.58 487.511 522.683 487.392 521.807 487.174 L 521.985 487.174 C 517.358 484.352 512.064 482.813 506.646 482.715 C 491.128 482.715 485.063 491.098 485.063 505.367 L 485.063 533.193 C 485.063 547.284 491.009 555.667 506.646 555.667 C 512.047 555.617 517.339 554.14 521.985 551.386 L 521.807 551.386 C 522.67 551.085 523.57 550.905 524.482 550.851 C 527.178 550.932 529.316 553.149 529.298 555.845 C 529.298 563.337 513.245 565.477 505.219 565.477 C 483.101 565.477 473.469 551.386 473.469 533.193 L 473.469 505.367 Z " fill="rgb(216,216,214)"/><path d=" M 542.676 534.144 L 542.676 503.465 C 542.676 485.806 554.27 472.072 575.674 472.072 C 597.078 472.072 608.672 485.806 608.672 503.465 L 608.672 534.144 C 608.672 551.802 597.257 565.358 575.674 565.358 C 554.092 565.358 542.676 551.802 542.676 534.144 Z  M 597.078 534.144 L 597.078 503.286 C 597.078 490.444 589.944 482.477 575.674 482.477 C 561.405 482.477 554.27 490.503 554.27 503.286 L 554.27 534.144 C 554.27 546.986 561.583 554.954 575.674 554.954 C 589.765 554.954 597.078 546.986 597.078 534.144 Z " fill="rgb(216,216,214)"/><path d=" M 666.107 472.25 C 674.344 471.887 682.227 475.628 687.154 482.239 C 694.765 475.996 704.246 472.479 714.088 472.25 C 732.995 472.25 743.162 484.379 743.162 502.216 L 743.162 559.651 C 743.298 561.187 742.734 562.703 741.626 563.776 C 740.518 564.85 738.985 565.365 737.454 565.18 C 735.903 565.355 734.354 564.844 733.211 563.781 C 732.068 562.718 731.446 561.21 731.508 559.651 L 731.508 502.573 C 731.508 491.514 725.801 482.596 713.493 482.596 C 705.083 482.847 697.201 486.755 691.911 493.298 C 692.508 496.233 692.807 499.221 692.802 502.216 L 692.802 559.651 C 692.939 561.187 692.375 562.703 691.267 563.776 C 690.159 564.85 688.626 565.365 687.095 565.18 C 685.537 565.387 683.969 564.887 682.818 563.817 C 681.668 562.747 681.055 561.219 681.149 559.651 L 681.149 506.319 C 681.149 492.406 678.83 482.536 664.561 482.536 C 656.353 482.915 648.454 485.776 641.908 490.741 C 642.271 492.862 642.45 495.011 642.443 497.162 L 642.443 559.591 C 642.547 561.119 641.972 562.615 640.873 563.681 C 639.773 564.746 638.259 565.273 636.735 565.121 C 635.178 565.328 633.609 564.828 632.459 563.758 C 631.308 562.688 630.696 561.16 630.79 559.591 L 630.79 497.162 C 630.79 490.919 630.076 487.174 627.579 483.606 C 626.9 482.763 626.524 481.716 626.509 480.634 C 626.509 479.262 627.054 477.946 628.024 476.976 C 628.994 476.006 630.31 475.461 631.682 475.461 C 634.867 475.822 637.567 477.969 638.638 480.99 C 646.752 475.472 656.296 472.435 666.107 472.25 Z " fill="rgb(216,216,214)"/></g></svg>