<?xml version="1.0" encoding="UTF-8" standalone="no"?><!-- Generator: Gravit.io --><svg xmlns="http://www.w3.org/2000/svg" xmlns:xlink="http://www.w3.org/1999/xlink" style="isolation:isolate" viewBox="0 0 841.89 595.28" width="841.89pt" height="595.28pt"><defs><clipPath id="_clipPath_FzeVHPV5pAfr6e6GZmIl3VT9dkCp4htd"><rect width="841.89" height="595.28"/></clipPath></defs><g clip-path="url(#_clipPath_FzeVHPV5pAfr6e6GZmIl3VT9dkCp4htd)"><path d=" M 81.4 197.371 C 81.358 225.064 96.994 250.395 121.769 262.77 L 121.769 549.901 C 121.769 567.96 136.408 582.6 154.468 582.6 L 154.468 582.6 C 172.527 582.6 187.167 567.96 187.167 549.901 L 187.167 262.681 C 219.356 246.61 235.04 209.485 224.122 175.203 C 213.203 140.921 178.938 119.704 143.384 125.21 C 107.83 130.716 81.587 161.303 81.549 197.282 L 81.4 197.371 Z " fill="rgb(209,38,38)"/><path d=" M 333.51 201.414 L 333.183 201.414 C 331.166 201.337 329.264 200.459 327.897 198.974 C 326.53 197.49 325.811 195.522 325.9 193.506 C 329.455 106.236 261.704 32.553 174.444 28.79 C 170.396 28.432 167.344 24.958 167.511 20.897 C 167.677 16.837 171.005 13.625 175.068 13.6 C 270.744 17.653 345.069 98.416 341.179 194.101 C 341.019 198.21 337.622 201.449 333.51 201.414 Z " fill="rgb(209,38,38)"/><path d=" M 295.817 199.808 L 295.49 199.808 C 291.297 199.631 288.039 196.094 288.207 191.901 C 290.94 125.431 239.333 69.3 172.868 66.454 C 168.665 66.282 165.398 62.735 165.57 58.532 C 165.743 54.329 169.29 51.062 173.492 51.234 C 248.351 54.45 306.479 117.659 303.427 192.525 C 303.251 196.6 299.895 199.812 295.817 199.808 Z " fill="rgb(209,38,38)"/><path d=" M 258.153 198.233 L 257.945 198.233 C 253.753 198.056 250.495 194.519 250.662 190.326 C 252.524 144.657 217.075 106.096 171.412 104.118 C 167.209 103.946 163.941 100.399 164.114 96.196 C 164.286 91.993 167.833 88.726 172.036 88.898 C 226.116 91.198 268.112 136.867 265.882 190.95 C 265.705 195.071 262.278 198.301 258.153 198.233 Z " fill="rgb(209,38,38)"/><path d=" M 294.479 301.86 C 287.88 331.587 278.605 371.243 272.006 400.851 C 271.394 405.058 267.786 408.179 263.534 408.179 C 259.282 408.179 255.674 405.058 255.062 400.851 L 227.773 285.332 L 227.773 284.619 C 227.773 281.408 231.518 279.625 234.729 279.625 C 237.209 279.85 239.315 281.535 240.08 283.905 L 263.861 386.998 L 286.155 288.543 C 287.582 282.597 289.366 278.911 294.36 278.911 C 299.354 278.911 301.138 282.835 302.386 288.543 L 325.038 387.176 L 348.819 283.905 C 349.365 281.608 351.289 279.898 353.634 279.625 C 356.845 279.625 360.947 281.23 360.947 284.797 C 360.958 285.338 360.898 285.878 360.769 286.403 L 360.769 286.581 L 333.658 400.91 C 332.844 404.966 329.404 407.967 325.275 408.223 C 321.05 407.964 317.531 404.886 316.714 400.732 L 294.479 301.86 Z " fill="rgb(209,38,38)"/><path d=" M 435.56 406.38 L 387.225 406.38 C 381.874 406.38 377.059 404.774 377.059 399.245 L 377.059 287.948 C 377.075 283.916 380.34 280.652 384.371 280.636 L 433.777 280.636 C 436.967 280.763 439.487 283.388 439.484 286.581 C 439.462 288.056 438.842 289.458 437.765 290.467 C 436.689 291.476 435.25 292.004 433.777 291.932 L 388.741 291.932 L 388.741 337.414 L 430.358 337.414 C 433.504 337.43 436.049 339.976 436.066 343.121 C 436.114 344.66 435.533 346.152 434.455 347.252 C 433.378 348.352 431.898 348.965 430.358 348.948 L 388.741 348.948 L 388.741 394.965 L 435.471 394.965 C 437.51 394.965 439.394 396.053 440.414 397.818 C 441.433 399.584 441.433 401.76 440.414 403.526 C 439.394 405.292 437.51 406.38 435.471 406.38 L 435.56 406.38 Z " fill="rgb(209,38,38)"/><path d=" M 469.003 406.38 C 467.056 406.404 465.182 405.641 463.805 404.265 C 462.428 402.888 461.666 401.014 461.69 399.067 L 461.69 288.127 C 461.658 286.161 462.413 284.264 463.786 282.858 C 465.159 281.451 467.037 280.651 469.003 280.636 L 499.859 280.636 C 522.688 280.636 533.925 296.331 533.925 312.562 C 533.925 327.425 524.294 335.749 511.452 341.813 C 523.342 346.094 537.492 351.98 537.492 371.54 C 537.492 391.1 522.867 406.499 499.145 406.499 L 469.003 406.38 Z  M 495.756 335.214 C 508.063 335.214 521.975 328.079 521.975 312.384 C 521.975 302.039 516.03 292.051 498.788 292.051 L 473.283 292.051 L 473.283 335.214 L 495.756 335.214 Z  M 473.283 346.807 L 473.283 394.965 L 497.064 394.965 C 516.149 394.965 525.423 385.333 525.423 371.599 C 525.423 355.547 513.116 346.807 496.351 346.807 L 473.283 346.807 Z " fill="rgb(209,38,38)"/><path d=" M 228.516 451.148 C 228.516 447.996 231.071 445.441 234.223 445.441 C 237.376 445.441 239.931 447.996 239.931 451.148 L 239.931 477.902 L 260.739 477.902 C 262.167 477.925 263.524 478.526 264.499 479.569 C 265.475 480.611 265.985 482.006 265.912 483.432 C 265.912 484.803 265.367 486.119 264.397 487.089 C 263.427 488.059 262.111 488.604 260.739 488.604 L 239.931 488.604 L 239.931 526.773 C 239.931 546.571 242.071 553.884 256.518 553.884 C 257.767 553.884 258.837 553.706 260.085 553.706 C 263.474 553.706 268.112 554.241 268.112 559.056 C 268.112 563.872 263.474 564.586 259.194 564.586 C 234.58 564.586 228.516 552.457 228.516 528.022 L 228.516 451.148 Z " fill="rgb(209,38,38)"/><path d=" M 332.856 550.317 C 333.468 550.01 334.135 549.828 334.818 549.782 C 337.549 549.844 339.749 552.044 339.812 554.776 C 339.812 562.802 320.906 565.299 311.453 565.299 C 291.476 565.299 280.062 552.635 280.062 536.226 L 280.062 501.981 C 280.062 485.037 291.476 472.254 312.523 472.254 C 331.964 472.254 341.417 483.491 341.417 500.792 C 341.417 516.844 332.677 526.654 311.69 526.654 C 304.924 526.658 298.174 526.001 291.536 524.692 L 291.536 537.356 C 291.536 548.236 298.849 555.549 313.117 555.549 C 320.02 555.405 326.788 553.611 332.856 550.317 L 332.856 550.317 Z  M 312.047 482.361 C 299.205 482.361 291.714 489.496 291.714 500.554 L 291.714 515.715 C 298.617 516.595 305.565 517.072 312.523 517.142 C 327.386 517.142 330.002 509.115 330.002 500.732 C 330.002 487.712 323.343 482.361 311.988 482.361 L 312.047 482.361 Z " fill="rgb(209,38,38)"/><path d=" M 360.858 439.198 C 360.855 436.005 363.375 433.38 366.565 433.253 C 369.756 433.38 372.275 436.005 372.273 439.198 L 372.273 547.998 C 372.013 551.509 373.169 554.977 375.483 557.63 C 375.902 558.399 376.146 559.252 376.197 560.127 C 376.256 561.516 375.73 562.866 374.747 563.85 C 373.764 564.833 372.414 565.359 371.024 565.299 C 367.1 565.299 360.858 563.337 360.858 547.998 L 360.858 439.198 Z " fill="rgb(209,38,38)"/><path d=" M 448.61 550.317 C 449.222 550.01 449.889 549.828 450.572 549.782 C 453.304 549.844 455.503 552.044 455.566 554.776 C 455.566 562.802 436.66 565.299 427.207 565.299 C 407.231 565.299 395.816 552.635 395.816 536.226 L 395.816 501.981 C 395.816 485.037 407.231 472.254 428.277 472.254 C 447.718 472.254 457.171 483.491 457.171 500.792 C 457.171 516.844 448.432 526.654 427.445 526.654 C 420.679 526.658 413.929 526.001 407.291 524.692 L 407.291 537.356 C 407.291 548.236 414.603 555.549 428.872 555.549 C 435.775 555.405 442.543 553.611 448.61 550.317 Z  M 427.802 482.361 C 414.96 482.361 407.469 489.496 407.469 500.554 L 407.469 515.715 C 414.371 516.595 421.319 517.072 428.277 517.142 C 443.141 517.142 445.756 509.115 445.756 500.732 C 445.756 487.712 439.276 482.361 427.742 482.361 L 427.802 482.361 Z " fill="rgb(209,38,38)"/><path d=" M 473.402 505.31 C 473.402 487.118 483.033 472.849 505.15 472.849 C 513.176 472.849 529.228 474.989 529.228 482.659 C 529.236 483.938 528.731 485.168 527.827 486.073 C 526.922 486.978 525.692 487.482 524.413 487.474 C 523.51 487.455 522.613 487.336 521.737 487.118 L 521.915 487.118 C 517.289 484.296 511.995 482.757 506.577 482.659 C 491.059 482.659 484.995 491.042 484.995 505.31 L 484.995 533.135 C 484.995 547.225 490.941 555.608 506.577 555.608 C 511.977 555.558 517.269 554.081 521.915 551.327 L 521.737 551.327 C 522.6 551.026 523.5 550.846 524.413 550.792 C 527.108 550.873 529.246 553.09 529.228 555.786 C 529.228 563.278 513.176 565.418 505.15 565.418 C 483.033 565.418 473.402 551.327 473.402 533.135 L 473.402 505.31 Z " fill="rgb(209,38,38)"/><path d=" M 542.605 534.086 L 542.605 503.408 C 542.605 485.75 554.198 472.016 575.601 472.016 C 597.004 472.016 608.598 485.75 608.598 503.408 L 608.598 534.086 C 608.598 551.744 597.183 565.299 575.601 565.299 C 554.02 565.299 542.605 551.744 542.605 534.086 Z  M 597.004 534.086 L 597.004 503.23 C 597.004 490.388 589.87 482.421 575.601 482.421 C 561.333 482.421 554.198 490.447 554.198 503.23 L 554.198 534.086 C 554.198 546.928 561.511 554.895 575.601 554.895 C 589.692 554.895 597.004 546.928 597.004 534.086 Z " fill="rgb(209,38,38)"/><path d=" M 666.029 472.195 C 674.266 471.831 682.148 475.572 687.075 482.183 C 694.686 475.94 704.167 472.424 714.007 472.195 C 732.913 472.195 743.08 484.323 743.08 502.159 L 743.08 559.591 C 743.217 561.128 742.652 562.644 741.545 563.717 C 740.437 564.79 738.904 565.306 737.372 565.121 C 735.822 565.295 734.272 564.784 733.13 563.722 C 731.987 562.659 731.365 561.151 731.427 559.591 L 731.427 502.516 C 731.427 491.458 725.72 482.54 713.413 482.54 C 705.003 482.791 697.122 486.699 691.832 493.241 C 692.429 496.176 692.728 499.164 692.723 502.159 L 692.723 559.591 C 692.86 561.128 692.296 562.644 691.188 563.717 C 690.08 564.79 688.547 565.306 687.016 565.121 C 685.458 565.328 683.89 564.828 682.74 563.758 C 681.589 562.688 680.977 561.16 681.071 559.591 L 681.071 506.262 C 681.071 492.35 678.752 482.48 664.483 482.48 C 656.276 482.859 648.378 485.72 641.832 490.685 C 642.194 492.806 642.373 494.954 642.367 497.106 L 642.367 559.532 C 642.471 561.06 641.896 562.556 640.796 563.621 C 639.696 564.687 638.183 565.213 636.659 565.061 C 635.102 565.268 633.534 564.768 632.383 563.698 C 631.233 562.628 630.621 561.1 630.714 559.532 L 630.714 497.106 C 630.714 490.863 630.001 487.118 627.504 483.55 C 626.825 482.707 626.448 481.66 626.433 480.578 C 626.433 479.206 626.978 477.89 627.948 476.92 C 628.918 475.95 630.234 475.405 631.606 475.405 C 634.791 475.767 637.491 477.913 638.562 480.934 C 646.675 475.416 656.219 472.38 666.029 472.195 Z " fill="rgb(209,38,38)"/></g></svg>